<svg xmlns="http://www.w3.org/2000/svg" viewBox="0 0 1200 700"><defs><linearGradient id="sky" x1="0" y1="0" x2="0" y2="1"><stop stop-color="#7897d4"/><stop offset=".55" stop-color="#c6d7e8"/><stop offset="1" stop-color="#f8c983"/></linearGradient><linearGradient id="wood" x1="0" y1="0" x2="1" y2="1"><stop stop-color="#6f4329"/><stop offset="1" stop-color="#2d2633"/></linearGradient><linearGradient id="sail" x1="0" y1="0" x2="1" y2="1"><stop stop-color="#e9f7f7" stop-opacity=".95"/><stop offset="1" stop-color="#8be2d4" stop-opacity=".65"/></linearGradient></defs><rect width="1200" height="700" fill="url(#sky)"/><g opacity=".9" fill="#fff"><ellipse cx="210" cy="525" rx="240" ry="70"/><ellipse cx="510" cy="565" rx="320" ry="90"/><ellipse cx="970" cy="520" rx="250" ry="65"/></g><g transform="translate(135 105)"><path d="M145 355Q460 485 785 350L725 470Q470 565 205 462Z" fill="url(#wood)" stroke="#b98450" stroke-width="9"/><path d="M300 362V120M520 402V75M690 365V145" stroke="#49311f" stroke-width="18"/><path d="M302 135Q160 200 285 325Q400 220 302 135Z" fill="url(#sail)" stroke="#6bcfc7" stroke-width="8"/><path d="M518 90Q325 165 500 340Q645 225 518 90Z" fill="url(#sail)" stroke="#6bcfc7" stroke-width="10"/><path d="M688 160Q590 205 680 320Q770 235 688 160Z" fill="url(#sail)" stroke="#6bcfc7" stroke-width="7"/><path d="M160 365 65 330 155 420M790 355 900 315 815 430" fill="none" stroke="#9a80f5" stroke-width="22" stroke-linecap="round"/><path d="M215 460Q470 540 735 458" fill="none" stroke="#74e7d7" stroke-width="14" opacity=".9"/><circle cx="480" cy="447" r="44" fill="#9c8cff" stroke="#d8d0ff" stroke-width="10"/><path d="M480 395 480 500M427 447 533 447" stroke="#f5d27a" stroke-width="6" opacity=".8"/><g fill="#4e8e5c"><circle cx="340" cy="370" r="28"/><circle cx="370" cy="365" r="20"/><circle cx="620" cy="375" r="24"/></g></g></svg>
